<?xml version="1.0" encoding="utf-8"?>
<!-- Generator: Adobe Illustrator 22.0.1, SVG Export Plug-In . SVG Version: 6.00 Build 0)  -->
<svg version="1.1" id="Capa_1" xmlns="http://www.w3.org/2000/svg" xmlns:xlink="http://www.w3.org/1999/xlink" x="0px" y="0px"
	 viewBox="0 0 541.9 75.2" style="enable-background:new 0 0 541.9 75.2;" xml:space="preserve">
<style type="text/css">
	.st0{fill:#00C9FF;}
</style>
<g id="Capa_x0020_1">
	<g id="_2465925920192">
		<polygon points="45.4,56.2 45.4,21.3 31.8,47.3 26.3,47.3 12.7,21.3 12.7,56.2 2.4,56.2 2.4,3.5 13.4,3.5 29,33.5 44.8,3.5 
			55.7,3.5 55.7,56.2 		"/>
		<path d="M66.5,63.8c0.8,0.2,1.7,0.4,2.5,0.6c0.8,0.1,1.5,0.2,2,0.2c0.6,0,1.2-0.1,1.8-0.4c0.5-0.2,1-0.7,1.5-1.3
			c0.4-0.6,0.9-1.5,1.3-2.6c0.4-1.1,0.9-2.5,1.4-4.1L61.6,17.3h10.3l10.6,30.3l9.4-30.3h9.4L84.8,63.9c-0.9,2.7-2.6,5-4.8,6.7
			c-2.3,1.7-5.1,2.6-8.5,2.6c-0.8,0-1.6-0.1-2.4-0.2c-0.8-0.1-1.7-0.3-2.6-0.6L66.5,63.8L66.5,63.8z"/>
		<path d="M107.6,56.2V3.5h22.4c2.4,0,4.7,0.5,6.7,1.5c2.1,1,3.8,2.4,5.3,4c1.5,1.7,2.7,3.5,3.5,5.6c0.8,2.1,1.3,4.2,1.3,6.4
			c0,2.2-0.4,4.4-1.2,6.5c-0.8,2.1-1.9,4-3.3,5.6c-1.4,1.6-3.2,2.9-5.2,3.9c-2,1-4.3,1.5-6.7,1.5h-12.5v17.7H107.6L107.6,56.2z
			 M117.8,29.5h11.9c1.9,0,3.5-0.8,4.7-2.3c1.3-1.5,1.9-3.6,1.9-6.2c0-1.3-0.2-2.5-0.6-3.6c-0.4-1.1-0.9-2-1.6-2.7
			c-0.6-0.7-1.4-1.3-2.3-1.7s-1.7-0.6-2.6-0.6h-11.4L117.8,29.5L117.8,29.5z"/>
		<path d="M176.1,25.9c-3,0.1-5.7,0.6-8.1,1.7c-2.4,1.1-4.1,2.8-5.1,5v23.6h-10V17.3h9.1v8.3c0.7-1.3,1.5-2.5,2.5-3.6
			c0.9-1.1,2-2,3-2.8c1.1-0.8,2.2-1.4,3.3-1.8c1.1-0.4,2.2-0.6,3.2-0.6c0.5,0,1,0,1.2,0c0.3,0,0.5,0,0.8,0.1V25.9z"/>
		<path d="M181.6,56.2V17.3h10v38.9H181.6z M181.6,11.9V2h10v9.9H181.6z"/>
		<path d="M261.1,56.2h-10V34.4c0-3.1-0.5-5.4-1.6-6.8c-1.1-1.4-2.5-2.2-4.4-2.2c-2,0-3.8,0.8-5.6,2.3c-1.7,1.5-3,3.5-3.7,5.9v22.7
			h-10V34.4c0-3.1-0.5-5.4-1.6-6.8c-1.1-1.4-2.5-2.2-4.4-2.2c-1.9,0-3.8,0.7-5.5,2.2c-1.8,1.5-3,3.4-3.8,5.9v22.7h-10V17.3h9v7.2
			c1.4-2.5,3.4-4.5,5.9-5.8c2.5-1.4,5.4-2,8.6-2c3.3,0,5.8,0.8,7.6,2.4c1.8,1.6,2.9,3.5,3.4,5.9c1.6-2.7,3.6-4.7,6-6.1
			c2.4-1.4,5.2-2.1,8.3-2.1c2.4,0,4.3,0.4,5.9,1.3c1.5,0.9,2.7,2.1,3.6,3.5c0.8,1.4,1.4,3.1,1.7,4.9c0.3,1.8,0.5,3.7,0.5,5.6
			L261.1,56.2L261.1,56.2z"/>
		<path d="M287.8,57c-3.1,0-5.9-0.5-8.5-1.6c-2.5-1.1-4.7-2.5-6.5-4.3c-1.8-1.8-3.2-4-4.1-6.4c-1-2.4-1.4-5-1.4-7.7
			c0-2.8,0.5-5.4,1.4-7.8c0.9-2.5,2.3-4.6,4.1-6.5c1.8-1.9,3.9-3.3,6.5-4.4c2.6-1.1,5.4-1.6,8.6-1.6s6,0.5,8.5,1.6
			c2.5,1.1,4.6,2.6,6.4,4.4c1.8,1.8,3.1,4,4,6.4c0.9,2.4,1.4,5,1.4,7.6c0,0.6,0,1.3,0,1.9c0,0.6-0.1,1.1-0.2,1.5h-30.1
			c0.1,1.5,0.5,2.9,1.1,4.1c0.6,1.2,1.4,2.2,2.3,3c0.9,0.8,2,1.5,3.2,1.9c1.2,0.4,2.4,0.7,3.7,0.7c2,0,3.9-0.5,5.6-1.4
			c1.8-1,3-2.2,3.6-3.8l8.5,2.4c-1.4,3-3.7,5.4-6.9,7.3C295.9,56,292.2,57,287.8,57L287.8,57z M297.9,33.5c-0.2-2.9-1.3-5.3-3.2-7
			c-1.9-1.8-4.2-2.6-6.9-2.6c-1.3,0-2.6,0.2-3.8,0.7c-1.2,0.5-2.2,1.1-3.1,2c-0.9,0.8-1.6,1.9-2.2,3c-0.6,1.2-0.9,2.5-1,3.9H297.9
			L297.9,33.5z"/>
		<path d="M337.4,25.9c-3,0.1-5.7,0.6-8.1,1.7c-2.4,1.1-4.1,2.8-5.1,5v23.6h-10V17.3h9.1v8.3c0.7-1.3,1.5-2.5,2.5-3.6
			c0.9-1.1,2-2,3-2.8c1.1-0.8,2.2-1.4,3.3-1.8c1.1-0.4,2.2-0.6,3.2-0.6c0.5,0,1,0,1.2,0s0.5,0,0.8,0.1L337.4,25.9L337.4,25.9z"/>
		<path d="M353.1,57c-1.9,0-3.6-0.3-5.3-0.9c-1.6-0.6-3-1.5-4.2-2.6c-1.2-1.1-2.1-2.4-2.8-3.9c-0.7-1.5-1-3.1-1-4.9
			c0-1.8,0.4-3.5,1.2-5.1c0.8-1.6,2-2.9,3.4-4c1.5-1.1,3.2-1.9,5.2-2.6c2-0.6,4.3-0.9,6.7-0.9c1.7,0,3.4,0.1,5.1,0.4
			c1.7,0.3,3.1,0.7,4.4,1.3v-2.2c0-2.6-0.7-4.6-2.2-5.9c-1.5-1.4-3.6-2.1-6.5-2.1c-2.1,0-4.1,0.4-6.1,1.1c-2,0.7-4,1.8-6.1,3.3
			l-3-6.3c5-3.3,10.4-5,16.2-5c5.6,0,9.9,1.4,13,4.1c3.1,2.7,4.6,6.7,4.6,11.9v12.1c0,1,0.2,1.8,0.6,2.2c0.4,0.4,1,0.7,1.8,0.7v8.5
			c-1.7,0.3-3.1,0.5-4.4,0.5c-1.9,0-3.3-0.4-4.3-1.3c-1-0.8-1.6-2-1.9-3.3l-0.2-2.2c-1.7,2.3-3.8,4-6.3,5.2
			C358.6,56.4,355.9,57,353.1,57L353.1,57z M355.9,49.7c1.7,0,3.3-0.3,4.8-0.9c1.5-0.6,2.7-1.4,3.5-2.4c1.1-0.8,1.6-1.8,1.6-2.8
			v-4.5c-1.2-0.4-2.5-0.8-3.9-1.1c-1.4-0.3-2.7-0.4-4-0.4c-2.6,0-4.7,0.6-6.3,1.7c-1.6,1.2-2.5,2.6-2.5,4.4c0,1.7,0.6,3.1,1.9,4.2
			C352.5,49.1,354,49.7,355.9,49.7L355.9,49.7z"/>
		<polygon class="st0" points="400.4,3.6 409.8,3.6 415.7,21.1 421.7,3.6 431.2,3.6 422.2,27.6 428.9,44.5 443.8,3.5 455,3.5 
			433.5,56.2 424.9,56.2 415.7,34.1 406.6,56.2 398,56.2 376.7,3.5 387.7,3.5 402.7,44.5 409.2,27.6 		"/>
		<path class="st0" d="M472.7,57c-3.1,0-5.9-0.5-8.5-1.6c-2.5-1.1-4.7-2.5-6.5-4.3c-1.8-1.8-3.2-4-4.1-6.4c-1-2.4-1.4-5-1.4-7.7
			c0-2.8,0.5-5.4,1.4-7.8c0.9-2.5,2.3-4.6,4.1-6.5c1.8-1.9,3.9-3.3,6.5-4.4c2.6-1.1,5.4-1.6,8.6-1.6c3.2,0,6,0.5,8.5,1.6
			c2.5,1.1,4.6,2.6,6.4,4.4c1.8,1.8,3.1,4,4,6.4c0.9,2.4,1.4,5,1.4,7.6c0,0.6,0,1.3,0,1.9c0,0.6-0.1,1.1-0.2,1.5h-30.1
			c0.1,1.5,0.5,2.9,1.1,4.1c0.6,1.2,1.4,2.2,2.3,3c0.9,0.8,2,1.5,3.2,1.9c1.2,0.4,2.4,0.7,3.7,0.7c2,0,3.9-0.5,5.6-1.4
			c1.8-1,3-2.2,3.6-3.8l8.5,2.4c-1.4,3-3.7,5.4-6.9,7.3C480.8,56,477.1,57,472.7,57L472.7,57z M482.8,33.5c-0.2-2.9-1.3-5.3-3.2-7
			c-1.9-1.8-4.2-2.6-6.9-2.6c-1.3,0-2.6,0.2-3.8,0.7c-1.2,0.5-2.2,1.1-3.1,2c-0.9,0.8-1.6,1.9-2.2,3c-0.6,1.2-0.9,2.5-1,3.9H482.8z"
			/>
		<path class="st0" d="M521.3,57c-3,0-5.6-0.7-8-2c-2.3-1.3-4.2-3.2-5.5-5.5v6.8h-8.7V2h10v22.1c1.4-2.4,3.2-4.2,5.5-5.5
			c2.3-1.3,4.9-2,7.9-2c2.5,0,4.8,0.5,6.9,1.6c2.1,1.1,3.9,2.6,5.4,4.4c1.5,1.8,2.7,4,3.5,6.5c0.8,2.5,1.2,5.1,1.2,7.8
			c0,2.8-0.5,5.4-1.4,7.9c-0.9,2.4-2.2,4.5-3.8,6.4c-1.6,1.8-3.6,3.2-5.8,4.3C526.3,56.4,523.9,57,521.3,57L521.3,57z M518.6,48.5
			c1.6,0,3-0.3,4.4-0.9c1.3-0.6,2.5-1.4,3.4-2.5c0.9-1,1.7-2.3,2.2-3.6c0.5-1.4,0.8-2.9,0.8-4.5c0-1.6-0.2-3.1-0.7-4.5
			c-0.5-1.4-1.2-2.7-2.1-3.8c-0.9-1.1-2-2-3.2-2.6c-1.2-0.6-2.6-1-4.1-1c-2.2,0-4.2,0.7-6,2.2c-1.8,1.5-3.1,3.3-4,5.4V42
			c0.3,1,0.9,1.9,1.5,2.7c0.7,0.8,1.4,1.5,2.3,2c0.8,0.6,1.8,1,2.7,1.3C516.7,48.3,517.6,48.5,518.6,48.5L518.6,48.5z"/>
	</g>
</g>
</svg>
